<svg xmlns="http://www.w3.org/2000/svg" viewBox="0 0 100 100">
  <defs>
    <linearGradient id="grad1" x1="0%" y1="0%" x2="100%" y2="100%">
      <stop offset="0%" style="stop-color:#1e40af;stop-opacity:1" />
      <stop offset="100%" style="stop-color:#5b21b6;stop-opacity:1" />
    </linearGradient>
  </defs>
  <rect width="100" height="100" fill="url(#grad1)" rx="20"/>

  <g transform="translate(50, 50)">
    <!-- Rocket body -->
    <path d="M 0,-18 C -4,-18 -6,-16 -6,-12 L -6,8 C -6,10 -4,12 0,12 C 4,12 6,10 6,8 L 6,-12 C 6,-16 4,-18 0,-18 Z" fill="#FF6B6B" stroke="none"/>

    <!-- Rocket nose cone -->
    <path d="M -3,-12 L 0,-20 L 3,-12 Z" fill="#FFA500"/>

    <!-- Window -->
    <circle cx="0" cy="-10" r="2.5" fill="#FFD700"/>

    <!-- Left fin -->
    <path d="M -6,-4 L -10,4 L -6,6 Z" fill="#FF6B6B"/>

    <!-- Right fin -->
    <path d="M 6,-4 L 10,4 L 6,6 Z" fill="#FF6B6B"/>

    <!-- Flame 1 (left) -->
    <path d="M -4,12 Q -6,16 -4,22 Q -3,18 -2,12 Z" fill="#FFD700"/>

    <!-- Flame 2 (center) -->
    <path d="M 0,12 Q -2,18 0,24 Q 2,18 0,12 Z" fill="#FF8C00"/>

    <!-- Flame 3 (right) -->
    <path d="M 4,12 Q 6,16 4,22 Q 3,18 2,12 Z" fill="#FFD700"/>
  </g>
</svg>
