<svg xmlns="http://www.w3.org/2000/svg" viewBox="0 0 100 100">
  <defs>
    <linearGradient id="grad1" x1="0%" y1="0%" x2="100%" y2="100%">
      <stop offset="0%" style="stop-color:#1e40af;stop-opacity:1" />
      <stop offset="100%" style="stop-color:#5b21b6;stop-opacity:1" />
    </linearGradient>
  </defs>
  <rect width="100" height="100" fill="url(#grad1)" rx="20"/>

  <!-- Rocket angled at ~45 degrees -->
  <g transform="translate(30, 65) rotate(-45)">
    <!-- Main rocket body -->
    <ellipse cx="0" cy="0" rx="10" ry="24" fill="black"/>

    <!-- Nose cone -->
    <polygon points="0,-26 -8,-20 8,-20" fill="black"/>

    <!-- Window -->
    <circle cx="0" cy="-8" r="5" fill="white"/>

    <!-- Left fin -->
    <path d="M -10,-8 Q -18,-10 -16,4 Q -12,-2 -10,-2 Z" fill="black"/>

    <!-- Right fin -->
    <path d="M 10,-8 Q 18,-10 16,4 Q 12,-2 10,-2 Z" fill="black"/>
  </g>

  <!-- Red flames -->
  <g transform="translate(20, 75)">
    <!-- Left flame -->
    <path d="M -5,0 Q -12,3 -10,14 Q -6,8 -3,2 Z" fill="#DC2626"/>

    <!-- Center flame -->
    <path d="M 0,2 Q -4,8 0,18 Q 4,8 2,2 Z" fill="#EF4444"/>

    <!-- Right flame -->
    <path d="M 5,0 Q 8,4 6,14 Q 4,8 3,2 Z" fill="#DC2626"/>
  </g>
</svg>
