<svg xmlns="http://www.w3.org/2000/svg" viewBox="0 0 100 100">
  <defs>
    <linearGradient id="grad1" x1="0%" y1="0%" x2="100%" y2="100%">
      <stop offset="0%" style="stop-color:#1e40af;stop-opacity:1" />
      <stop offset="100%" style="stop-color:#5b21b6;stop-opacity:1" />
    </linearGradient>
  </defs>
  <rect width="100" height="100" fill="url(#grad1)" rx="20"/>

  <g transform="translate(50, 50) rotate(-45)">
    <!-- Rocket body -->
    <path d="M -8,-16 Q -12,-10 -12,0 Q -12,12 -4,18 Q 0,20 4,18 Q 12,12 12,0 Q 12,-10 8,-16 Z" fill="#1a1a1a" stroke="none"/>

    <!-- Nose cone -->
    <polygon points="0,-20 -6,-14 6,-14" fill="#1a1a1a"/>

    <!-- Window -->
    <circle cx="0" cy="-6" r="4" fill="white"/>

    <!-- Left fin -->
    <path d="M -12,-2 Q -16,-4 -14,6 Q -12,4 -11,0 Z" fill="#1a1a1a"/>

    <!-- Right fin -->
    <path d="M 12,-2 Q 16,-4 14,6 Q 12,4 11,0 Z" fill="#1a1a1a"/>

    <!-- Flame 1 (left) -->
    <path d="M -6,18 Q -10,20 -8,28 Q -6,24 -5,19 Z" fill="#EF4444"/>

    <!-- Flame 2 (center) -->
    <path d="M 0,20 Q -3,24 0,32 Q 3,24 0,20 Z" fill="#DC2626"/>

    <!-- Flame 3 (right) -->
    <path d="M 6,18 Q 10,20 8,28 Q 6,24 5,19 Z" fill="#EF4444"/>
  </g>
</svg>
